<svg xmlns="http://www.w3.org/2000/svg" xmlns:xlink="http://www.w3.org/1999/xlink" version="1.1" id="Your_Icon" x="0px" y="0px" width="100px" height="100px" viewBox="0 0 100 100" enable-background="new 0 0 100 100" xml:space="preserve">
<g enable-background="new    ">
	<path d="M26.696,45.302c5.749,7.148,8.994,11.009,15.179,18.076c-4.975,5.926-7.39,8.677-11.456,13.271   c7.517-1.304,11.694-2.059,19.989-3.879c4.982,5.125,7.316,7.44,11.222,11.222c0.979-4.792,1.454-7.678,2.097-14.57   c8.859-2.456,13.203-3.842,19.945-6.58c-6.334-1.785-10.238-2.965-18.896-5.552c0.583-9.348,0.756-14.397,0.791-23.473   c-4.938,6.457-9.938,12.868-14.986,19.238C42.606,50.51,34.644,47.929,26.696,45.302 M64.612,93.134   c-4.831-1.979-9.13-5.267-18.944-14.016c-11.009,1.904-22.015,4.271-33.257,3.568c4.328-7.908,9.458-15.239,14.555-22.666   C17.903,49.099,8.165,37.509,2,24.588c14.491,2.249,28.587,7.246,42.518,11.643C52.751,25.36,61.039,13.155,71.293,4   c7.062,12.153,4.715,29.406,4.24,42.671c7.436,3.017,16.879,5.674,23.289,10.962c-3.67,9.391-18.318,12.398-26.451,15.268   C70.045,85.179,68.389,90.52,64.612,93.134"/>
</g>
</svg>